<svg xmlns="http://www.w3.org/2000/svg" viewBox="0 0 1600 2876" role="img" aria-labelledby="title desc">
<title id="title">Pi agent loop matrix reference</title>
<desc id="desc">A row-based matrix of all twenty-two agent loop steps, emitted events, injection points, and explanations of what each hook or seam is.</desc>
<defs><filter id="shadow" x="-10%" y="-20%" width="130%" height="160%"><feDropShadow dx="0" dy="3" stdDeviation="5" flood-color="#3c2618" flood-opacity="0.10"/></filter>
<style>
.bg{fill:#f7f1e8} .title{font:900 34px ui-sans-serif,system-ui,sans-serif;fill:#211b17} .subtitle{font:16px ui-sans-serif,system-ui,sans-serif;fill:#6f6258}
.header{fill:#211b17} .headerText{font:900 15px ui-sans-serif,system-ui,sans-serif;fill:#fffaf1;letter-spacing:.02em}
.rowA{fill:#fffaf1} .rowB{fill:#fbf3e7} .grid{stroke:#dfd0bf;stroke-width:1.4}
.numCircle{fill:#2f6f73;filter:url(#shadow)} .num{font:900 18px ui-sans-serif,system-ui,sans-serif;fill:white}
.stepTitle{font:900 18px ui-sans-serif,system-ui,sans-serif;fill:#211b17} .body{font:14px ui-sans-serif,system-ui,sans-serif;fill:#6f6258}
.event{fill:#f4d2bd;stroke:#a3472a;stroke-width:1.6} .eventText{font:800 11px ui-monospace,SFMono-Regular,Menlo,monospace;fill:#5b2a1a}
.hook{fill:#eadff0;stroke:#7f4b8b;stroke-width:1.6} .hookText{font:800 11px ui-monospace,SFMono-Regular,Menlo,monospace;fill:#4b2852}
.none{font:italic 13px ui-sans-serif,system-ui,sans-serif;fill:#a09386} .legend{font:13px ui-sans-serif,system-ui,sans-serif;fill:#211b17}
</style></defs>
<rect class="bg" width="1600" height="2876"/>
<text x="45" y="58" class="title">Agent loop matrix reference</text>
<text x="45" y="88" class="subtitle">Each row matches the numbered flow on the page. Events show what subscribers see; injection points show where custom behavior can enter and what kind of seam it is.</text>
<rect x="45" y="115" width="1510" height="42" rx="12" class="header"/>

<text x="59" y="142" class="headerText">#</text>
<text x="114" y="142" class="headerText">Loop step</text>
<text x="454" y="142" class="headerText">Events emitted</text>
<text x="749" y="142" class="headerText">Injection points</text>
<text x="1109" y="142" class="headerText">What the hook/seam is</text>
<rect x="45" y="157" width="1510" height="118" class="rowA"/>
<line x1="100" y1="157" x2="100" y2="275" class="grid"/>
<line x1="440" y1="157" x2="440" y2="275" class="grid"/>
<line x1="735" y1="157" x2="735" y2="275" class="grid"/>
<line x1="1095" y1="157" x2="1095" y2="275" class="grid"/>
<line x1="45" y1="157" x2="1555" y2="157" class="grid"/>
<circle cx="72" cy="216.0" r="20" fill="#2f6f73" class="numCircle"/><text x="72" y="222.0" text-anchor="middle" class="num">1</text>
<text x="118" y="191" class="stepTitle">Start run</text>
<text x="118" y="215" class="body">Begin a new loop invocation; prompt</text>
<text x="118" y="232" class="body">messages are added and emitted.</text>
<rect x="456" y="179" width="103.4" height="23" rx="11.5" class="event"/><text x="507.7" y="194.5" text-anchor="middle" class="eventText">agent_start</text>
<rect x="566.4" y="179" width="96.0" height="23" rx="11.5" class="event"/><text x="614.4" y="194.5" text-anchor="middle" class="eventText">turn_start</text>
<rect x="456" y="208" width="118.2" height="23" rx="11.5" class="event"/><text x="515.1" y="223.5" text-anchor="middle" class="eventText">message_start</text>
<rect x="581.2" y="208" width="103.4" height="23" rx="11.5" class="event"/><text x="632.9" y="223.5" text-anchor="middle" class="eventText">message_end</text>
<rect x="751" y="179" width="177.4" height="23" rx="11.5" class="hook"/><text x="839.7" y="194.5" text-anchor="middle" class="hookText">AgentSession.prompt()</text>
<rect x="935.4" y="179" width="133.0" height="23" rx="11.5" class="hook"/><text x="1001.9" y="194.5" text-anchor="middle" class="hookText">extension input</text>
<rect x="751" y="208" width="155.20000000000002" height="23" rx="11.5" class="hook"/><text x="828.6" y="223.5" text-anchor="middle" class="hookText">before_agent_start</text>
<text x="1111" y="185" class="body">AgentSession.prompt() preprocesses user text before</text>
<text x="1111" y="202" class="body">Agent.prompt(). extension input is an ExtensionRunner</text>
<text x="1111" y="219" class="body">event that can transform/handle input. before_agent_start</text>
<text x="1111" y="236" class="body">is an extension event emitted before the low-level Agent</text>
<text x="1111" y="253" class="body">starts.</text>
<rect x="45" y="275" width="1510" height="118" class="rowB"/>
<line x1="100" y1="275" x2="100" y2="393" class="grid"/>
<line x1="440" y1="275" x2="440" y2="393" class="grid"/>
<line x1="735" y1="275" x2="735" y2="393" class="grid"/>
<line x1="1095" y1="275" x2="1095" y2="393" class="grid"/>
<line x1="45" y1="275" x2="1555" y2="275" class="grid"/>
<circle cx="72" cy="334.0" r="20" fill="#426579" class="numCircle"/><text x="72" y="340.0" text-anchor="middle" class="num">2</text>
<text x="118" y="309" class="stepTitle">Drain initial steering</text>
<text x="118" y="333" class="body">Read queued steering messages typed while</text>
<text x="118" y="350" class="body">the agent was already busy.</text>
<text x="458" y="339" class="none">—</text>
<rect x="751" y="297" width="177.4" height="23" rx="11.5" class="hook"/><text x="839.7" y="312.5" text-anchor="middle" class="hookText">getSteeringMessages()</text>
<text x="1111" y="303" class="body">AgentLoopConfig callback supplied by Agent; drains</text>
<text x="1111" y="320" class="body">Agent.steer() queue.</text>
<rect x="45" y="393" width="1510" height="118" class="rowA"/>
<line x1="100" y1="393" x2="100" y2="511" class="grid"/>
<line x1="440" y1="393" x2="440" y2="511" class="grid"/>
<line x1="735" y1="393" x2="735" y2="511" class="grid"/>
<line x1="1095" y1="393" x2="1095" y2="511" class="grid"/>
<line x1="45" y1="393" x2="1555" y2="393" class="grid"/>
<circle cx="72" cy="452.0" r="20" fill="#c47a1d" class="numCircle"/><text x="72" y="458.0" text-anchor="middle" class="num">3</text>
<text x="118" y="427" class="stepTitle">Begin a turn</text>
<text x="118" y="451" class="body">Open a new assistant turn after the first</text>
<text x="118" y="468" class="body">prompt turn.</text>
<rect x="456" y="415" width="96.0" height="23" rx="11.5" class="event"/><text x="504.0" y="430.5" text-anchor="middle" class="eventText">turn_start</text>
<text x="753" y="457" class="none">—</text>
<text x="1111" y="421" class="body">Loop lifecycle event. UI/session subscribers can observe</text>
<text x="1111" y="438" class="body">it; not usually an injection point.</text>
<rect x="45" y="511" width="1510" height="118" class="rowB"/>
<line x1="100" y1="511" x2="100" y2="629" class="grid"/>
<line x1="440" y1="511" x2="440" y2="629" class="grid"/>
<line x1="735" y1="511" x2="735" y2="629" class="grid"/>
<line x1="1095" y1="511" x2="1095" y2="629" class="grid"/>
<line x1="45" y1="511" x2="1555" y2="511" class="grid"/>
<circle cx="72" cy="570.0" r="20" fill="#7f4b8b" class="numCircle"/><text x="72" y="576.0" text-anchor="middle" class="num">4</text>
<text x="118" y="545" class="stepTitle">Inject pending messages</text>
<text x="118" y="569" class="body">Append steering/follow-up messages before</text>
<text x="118" y="586" class="body">the assistant response.</text>
<rect x="456" y="533" width="118.2" height="23" rx="11.5" class="event"/><text x="515.1" y="548.5" text-anchor="middle" class="eventText">message_start</text>
<rect x="581.2" y="533" width="103.4" height="23" rx="11.5" class="event"/><text x="632.9" y="548.5" text-anchor="middle" class="eventText">message_end</text>
<rect x="751" y="533" width="118.2" height="23" rx="11.5" class="hook"/><text x="810.1" y="548.5" text-anchor="middle" class="hookText">steer() queue</text>
<rect x="876.2" y="533" width="140.4" height="23" rx="11.5" class="hook"/><text x="946.4" y="548.5" text-anchor="middle" class="hookText">followUp() queue</text>
<text x="1111" y="539" class="body">Agent.steer() injects messages after the current turn.</text>
<text x="1111" y="556" class="body">Agent.followUp() waits until the agent would otherwise</text>
<text x="1111" y="573" class="body">stop.</text>
<rect x="45" y="629" width="1510" height="118" class="rowA"/>
<line x1="100" y1="629" x2="100" y2="747" class="grid"/>
<line x1="440" y1="629" x2="440" y2="747" class="grid"/>
<line x1="735" y1="629" x2="735" y2="747" class="grid"/>
<line x1="1095" y1="629" x2="1095" y2="747" class="grid"/>
<line x1="45" y1="629" x2="1555" y2="629" class="grid"/>
<circle cx="72" cy="688.0" r="20" fill="#1f7f8d" class="numCircle"/><text x="72" y="694.0" text-anchor="middle" class="num">5</text>
<text x="118" y="663" class="stepTitle">Transform context</text>
<text x="118" y="687" class="body">Modify AgentMessage[] before LLM</text>
<text x="118" y="704" class="body">conversion.</text>
<text x="458" y="693" class="none">—</text>
<rect x="751" y="651" width="140.4" height="23" rx="11.5" class="hook"/><text x="821.2" y="666.5" text-anchor="middle" class="hookText">transformContext</text>
<rect x="898.4" y="651" width="147.8" height="23" rx="11.5" class="hook"/><text x="972.3" y="666.5" text-anchor="middle" class="hookText">extension context</text>
<text x="1111" y="657" class="body">AgentLoopConfig callback. Coding-agent wires it to</text>
<text x="1111" y="674" class="body">ExtensionRunner.emitContext(), so extensions can</text>
<text x="1111" y="691" class="body">prune/inject/reorder messages before each provider call.</text>
<rect x="45" y="747" width="1510" height="118" class="rowB"/>
<line x1="100" y1="747" x2="100" y2="865" class="grid"/>
<line x1="440" y1="747" x2="440" y2="865" class="grid"/>
<line x1="735" y1="747" x2="735" y2="865" class="grid"/>
<line x1="1095" y1="747" x2="1095" y2="865" class="grid"/>
<line x1="45" y1="747" x2="1555" y2="747" class="grid"/>
<circle cx="72" cy="806.0" r="20" fill="#a3472a" class="numCircle"/><text x="72" y="812.0" text-anchor="middle" class="num">6</text>
<text x="118" y="781" class="stepTitle">Convert to LLM messages</text>
<text x="118" y="805" class="body">Map app/custom messages to provider-</text>
<text x="118" y="822" class="body">compatible Message[].</text>
<text x="458" y="811" class="none">—</text>
<rect x="751" y="769" width="110.80000000000001" height="23" rx="11.5" class="hook"/><text x="806.4" y="784.5" text-anchor="middle" class="hookText">convertToLlm</text>
<text x="1111" y="775" class="body">Required AgentLoopConfig callback. Coding-agent</text>
<text x="1111" y="792" class="body">implementation lives in core/messages.ts and filters or</text>
<text x="1111" y="809" class="body">converts custom messages.</text>
<rect x="45" y="865" width="1510" height="118" class="rowA"/>
<line x1="100" y1="865" x2="100" y2="983" class="grid"/>
<line x1="440" y1="865" x2="440" y2="983" class="grid"/>
<line x1="735" y1="865" x2="735" y2="983" class="grid"/>
<line x1="1095" y1="865" x2="1095" y2="983" class="grid"/>
<line x1="45" y1="865" x2="1555" y2="865" class="grid"/>
<circle cx="72" cy="924.0" r="20" fill="#2f6f73" class="numCircle"/><text x="72" y="930.0" text-anchor="middle" class="num">7</text>
<text x="118" y="899" class="stepTitle">Build LLM context</text>
<text x="118" y="923" class="body">Construct { systemPrompt, messages, tools</text>
<text x="118" y="940" class="body">}.</text>
<text x="458" y="929" class="none">—</text>
<rect x="751" y="887" width="118.2" height="23" rx="11.5" class="hook"/><text x="810.1" y="902.5" text-anchor="middle" class="hookText">system prompt</text>
<rect x="876.2" y="887" width="110.80000000000001" height="23" rx="11.5" class="hook"/><text x="931.6" y="902.5" text-anchor="middle" class="hookText">active tools</text>
<text x="1111" y="893" class="body">The loop builds pi-ai Context. System prompt and active</text>
<text x="1111" y="910" class="body">tools are prepared earlier by AgentSession.</text>
<rect x="45" y="983" width="1510" height="118" class="rowB"/>
<line x1="100" y1="983" x2="100" y2="1101" class="grid"/>
<line x1="440" y1="983" x2="440" y2="1101" class="grid"/>
<line x1="735" y1="983" x2="735" y2="1101" class="grid"/>
<line x1="1095" y1="983" x2="1095" y2="1101" class="grid"/>
<line x1="45" y1="983" x2="1555" y2="983" class="grid"/>
<circle cx="72" cy="1042.0" r="20" fill="#426579" class="numCircle"/><text x="72" y="1048.0" text-anchor="middle" class="num">8</text>
<text x="118" y="1017" class="stepTitle">Resolve dynamic auth</text>
<text x="118" y="1041" class="body">Resolve per-request API key if configured.</text>
<text x="458" y="1047" class="none">—</text>
<rect x="751" y="1005" width="162.6" height="23" rx="11.5" class="hook"/><text x="832.3" y="1020.5" text-anchor="middle" class="hookText">getApiKey(provider)</text>
<rect x="920.6" y="1005" width="155.20000000000002" height="23" rx="11.5" class="hook"/><text x="998.2" y="1020.5" text-anchor="middle" class="hookText">ModelRegistry auth</text>
<text x="1111" y="1011" class="body">AgentLoopConfig supports getApiKey(); coding-agent usually</text>
<text x="1111" y="1028" class="body">uses its streamFn to call</text>
<text x="1111" y="1045" class="body">ModelRegistry.getApiKeyAndHeaders() for richer auth/header</text>
<text x="1111" y="1062" class="body">handling.</text>
<rect x="45" y="1101" width="1510" height="118" class="rowA"/>
<line x1="100" y1="1101" x2="100" y2="1219" class="grid"/>
<line x1="440" y1="1101" x2="440" y2="1219" class="grid"/>
<line x1="735" y1="1101" x2="735" y2="1219" class="grid"/>
<line x1="1095" y1="1101" x2="1095" y2="1219" class="grid"/>
<line x1="45" y1="1101" x2="1555" y2="1101" class="grid"/>
<circle cx="72" cy="1160.0" r="20" fill="#c47a1d" class="numCircle"/><text x="72" y="1166.0" text-anchor="middle" class="num">9</text>
<text x="118" y="1135" class="stepTitle">Call stream function</text>
<text x="118" y="1159" class="body">Request assistant stream from pi-ai or</text>
<text x="118" y="1176" class="body">custom stream implementation.</text>
<text x="458" y="1165" class="none">—</text>
<rect x="751" y="1123" width="133.0" height="23" rx="11.5" class="hook"/><text x="817.5" y="1138.5" text-anchor="middle" class="hookText">custom streamFn</text>
<rect x="891.0" y="1123" width="88.60000000000001" height="23" rx="11.5" class="hook"/><text x="935.3" y="1138.5" text-anchor="middle" class="hookText">onPayload</text>
<rect x="751" y="1152" width="96.0" height="23" rx="11.5" class="hook"/><text x="799.0" y="1167.5" text-anchor="middle" class="hookText">onResponse</text>
<rect x="854.0" y="1152" width="192.20000000000002" height="23" rx="11.5" class="hook"/><text x="950.1" y="1167.5" text-anchor="middle" class="hookText">before_provider_request</text>
<rect x="751" y="1181" width="192.20000000000002" height="23" rx="11.5" class="hook"/><text x="847.1" y="1196.5" text-anchor="middle" class="hookText">after_provider_response</text>
<text x="1111" y="1129" class="body">streamFn is injected into Agent. SDK supplies one that</text>
<text x="1111" y="1146" class="body">resolves auth/headers then calls pi-ai streamSimple().</text>
<text x="1111" y="1163" class="body">onPayload/onResponse are provider hooks bridged to</text>
<text x="1111" y="1180" class="body">extension provider-request events.</text>
<rect x="45" y="1219" width="1510" height="118" class="rowB"/>
<line x1="100" y1="1219" x2="100" y2="1337" class="grid"/>
<line x1="440" y1="1219" x2="440" y2="1337" class="grid"/>
<line x1="735" y1="1219" x2="735" y2="1337" class="grid"/>
<line x1="1095" y1="1219" x2="1095" y2="1337" class="grid"/>
<line x1="45" y1="1219" x2="1555" y2="1219" class="grid"/>
<circle cx="72" cy="1278.0" r="20" fill="#7f4b8b" class="numCircle"/><text x="72" y="1284.0" text-anchor="middle" class="num">10</text>
<text x="118" y="1253" class="stepTitle">Stream assistant partials</text>
<text x="118" y="1277" class="body">Provider start/deltas update the partial</text>
<text x="118" y="1294" class="body">assistant message.</text>
<rect x="456" y="1241" width="118.2" height="23" rx="11.5" class="event"/><text x="515.1" y="1256.5" text-anchor="middle" class="eventText">message_start</text>
<rect x="581.2" y="1241" width="133.0" height="23" rx="11.5" class="event"/><text x="647.7" y="1256.5" text-anchor="middle" class="eventText">message_update*</text>
<text x="753" y="1283" class="none">—</text>
<text x="1111" y="1247" class="body">message_update repeats for text, thinking, and tool-call</text>
<text x="1111" y="1264" class="body">deltas. UI uses this for live rendering.</text>
<rect x="45" y="1337" width="1510" height="118" class="rowA"/>
<line x1="100" y1="1337" x2="100" y2="1455" class="grid"/>
<line x1="440" y1="1337" x2="440" y2="1455" class="grid"/>
<line x1="735" y1="1337" x2="735" y2="1455" class="grid"/>
<line x1="1095" y1="1337" x2="1095" y2="1455" class="grid"/>
<line x1="45" y1="1337" x2="1555" y2="1337" class="grid"/>
<circle cx="72" cy="1396.0" r="20" fill="#1f7f8d" class="numCircle"/><text x="72" y="1402.0" text-anchor="middle" class="num">11</text>
<text x="118" y="1371" class="stepTitle">Finalize assistant</text>
<text x="118" y="1395" class="body">Provider done/error produces final</text>
<text x="118" y="1412" class="body">assistant message.</text>
<rect x="456" y="1359" width="103.4" height="23" rx="11.5" class="event"/><text x="507.7" y="1374.5" text-anchor="middle" class="eventText">message_end</text>
<text x="753" y="1401" class="none">—</text>
<text x="1111" y="1365" class="body">The partial assistant in context is replaced by the final</text>
<text x="1111" y="1382" class="body">message.</text>
<rect x="45" y="1455" width="1510" height="118" class="rowB"/>
<line x1="100" y1="1455" x2="100" y2="1573" class="grid"/>
<line x1="440" y1="1455" x2="440" y2="1573" class="grid"/>
<line x1="735" y1="1455" x2="735" y2="1573" class="grid"/>
<line x1="1095" y1="1455" x2="1095" y2="1573" class="grid"/>
<line x1="45" y1="1455" x2="1555" y2="1455" class="grid"/>
<circle cx="72" cy="1514.0" r="20" fill="#a3472a" class="numCircle"/><text x="72" y="1520.0" text-anchor="middle" class="num">12</text>
<text x="118" y="1489" class="stepTitle">Stop on error/abort</text>
<text x="118" y="1513" class="body">If assistant stopped with error/aborted,</text>
<text x="118" y="1530" class="body">finish immediately.</text>
<rect x="456" y="1477" width="81.2" height="23" rx="11.5" class="event"/><text x="496.6" y="1492.5" text-anchor="middle" class="eventText">turn_end</text>
<rect x="544.2" y="1477" width="88.60000000000001" height="23" rx="11.5" class="event"/><text x="588.5" y="1492.5" text-anchor="middle" class="eventText">agent_end</text>
<text x="753" y="1519" class="none">—</text>
<text x="1111" y="1483" class="body">Error/abort path skips tool execution and ends the run.</text>
<rect x="45" y="1573" width="1510" height="118" class="rowA"/>
<line x1="100" y1="1573" x2="100" y2="1691" class="grid"/>
<line x1="440" y1="1573" x2="440" y2="1691" class="grid"/>
<line x1="735" y1="1573" x2="735" y2="1691" class="grid"/>
<line x1="1095" y1="1573" x2="1095" y2="1691" class="grid"/>
<line x1="45" y1="1573" x2="1555" y2="1573" class="grid"/>
<circle cx="72" cy="1632.0" r="20" fill="#2f6f73" class="numCircle"/><text x="72" y="1638.0" text-anchor="middle" class="num">13</text>
<text x="118" y="1607" class="stepTitle">Collect tool calls</text>
<text x="118" y="1631" class="body">Scan final assistant content for toolCall</text>
<text x="118" y="1648" class="body">blocks.</text>
<text x="458" y="1637" class="none">—</text>
<text x="753" y="1637" class="none">—</text>
<text x="1111" y="1601" class="body">Pure loop mechanics: message.content.filter(c.type ===</text>
<text x="1111" y="1618" class="body">&#x27;toolCall&#x27;).</text>
<rect x="45" y="1691" width="1510" height="118" class="rowB"/>
<line x1="100" y1="1691" x2="100" y2="1809" class="grid"/>
<line x1="440" y1="1691" x2="440" y2="1809" class="grid"/>
<line x1="735" y1="1691" x2="735" y2="1809" class="grid"/>
<line x1="1095" y1="1691" x2="1095" y2="1809" class="grid"/>
<line x1="45" y1="1691" x2="1555" y2="1691" class="grid"/>
<circle cx="72" cy="1750.0" r="20" fill="#426579" class="numCircle"/><text x="72" y="1756.0" text-anchor="middle" class="num">14</text>
<text x="118" y="1725" class="stepTitle">Execute tools</text>
<text x="118" y="1749" class="body">Choose parallel or sequential tool</text>
<text x="118" y="1766" class="body">execution strategy.</text>
<text x="458" y="1755" class="none">—</text>
<rect x="751" y="1713" width="155.20000000000002" height="23" rx="11.5" class="hook"/><text x="828.6" y="1728.5" text-anchor="middle" class="hookText">toolExecution mode</text>
<rect x="913.2" y="1713" width="155.20000000000002" height="23" rx="11.5" class="hook"/><text x="990.8" y="1728.5" text-anchor="middle" class="hookText">tool.executionMode</text>
<text x="1111" y="1719" class="body">AgentLoopConfig.toolExecution controls batch behavior; any</text>
<text x="1111" y="1736" class="body">tool with executionMode=&#x27;sequential&#x27; forces sequential</text>
<text x="1111" y="1753" class="body">execution.</text>
<rect x="45" y="1809" width="1510" height="118" class="rowA"/>
<line x1="100" y1="1809" x2="100" y2="1927" class="grid"/>
<line x1="440" y1="1809" x2="440" y2="1927" class="grid"/>
<line x1="735" y1="1809" x2="735" y2="1927" class="grid"/>
<line x1="1095" y1="1809" x2="1095" y2="1927" class="grid"/>
<line x1="45" y1="1809" x2="1555" y2="1809" class="grid"/>
<circle cx="72" cy="1868.0" r="20" fill="#c47a1d" class="numCircle"/><text x="72" y="1874.0" text-anchor="middle" class="num">15</text>
<text x="118" y="1843" class="stepTitle">Prepare each tool</text>
<text x="118" y="1867" class="body">Find tool, prepare args, validate schema,</text>
<text x="118" y="1884" class="body">run pre-call hooks.</text>
<rect x="456" y="1831" width="170.0" height="23" rx="11.5" class="event"/><text x="541.0" y="1846.5" text-anchor="middle" class="eventText">tool_execution_start</text>
<rect x="751" y="1831" width="140.4" height="23" rx="11.5" class="hook"/><text x="821.2" y="1846.5" text-anchor="middle" class="hookText">prepareArguments</text>
<rect x="898.4" y="1831" width="125.60000000000001" height="23" rx="11.5" class="hook"/><text x="961.2" y="1846.5" text-anchor="middle" class="hookText">beforeToolCall</text>
<rect x="751" y="1860" width="162.6" height="23" rx="11.5" class="hook"/><text x="832.3" y="1875.5" text-anchor="middle" class="hookText">extension tool_call</text>
<text x="1111" y="1837" class="body">prepareArguments belongs to AgentTool/ToolDefinition.</text>
<text x="1111" y="1854" class="body">beforeToolCall is low-level Agent hook; coding-agent</text>
<text x="1111" y="1871" class="body">bridges it to extension tool_call, which can block</text>
<text x="1111" y="1888" class="body">execution.</text>
<rect x="45" y="1927" width="1510" height="118" class="rowB"/>
<line x1="100" y1="1927" x2="100" y2="2045" class="grid"/>
<line x1="440" y1="1927" x2="440" y2="2045" class="grid"/>
<line x1="735" y1="1927" x2="735" y2="2045" class="grid"/>
<line x1="1095" y1="1927" x2="1095" y2="2045" class="grid"/>
<line x1="45" y1="1927" x2="1555" y2="1927" class="grid"/>
<circle cx="72" cy="1986.0" r="20" fill="#7f4b8b" class="numCircle"/><text x="72" y="1992.0" text-anchor="middle" class="num">16</text>
<text x="118" y="1961" class="stepTitle">Run tool body</text>
<text x="118" y="1985" class="body">Execute tool and stream partial updates.</text>
<rect x="456" y="1949" width="177.4" height="23" rx="11.5" class="event"/><text x="544.7" y="1964.5" text-anchor="middle" class="eventText">tool_execution_update</text>
<rect x="751" y="1949" width="125.60000000000001" height="23" rx="11.5" class="hook"/><text x="813.8" y="1964.5" text-anchor="middle" class="hookText">tool.execute()</text>
<rect x="883.6" y="1949" width="81.2" height="23" rx="11.5" class="hook"/><text x="924.2" y="1964.5" text-anchor="middle" class="hookText">onUpdate</text>
<text x="1111" y="1955" class="body">AgentTool.execute(toolCallId,args,signal,onUpdate)</text>
<text x="1111" y="1972" class="body">performs work. onUpdate emits partial tool state for</text>
<text x="1111" y="1989" class="body">UI/status.</text>
<rect x="45" y="2045" width="1510" height="118" class="rowA"/>
<line x1="100" y1="2045" x2="100" y2="2163" class="grid"/>
<line x1="440" y1="2045" x2="440" y2="2163" class="grid"/>
<line x1="735" y1="2045" x2="735" y2="2163" class="grid"/>
<line x1="1095" y1="2045" x2="1095" y2="2163" class="grid"/>
<line x1="45" y1="2045" x2="1555" y2="2045" class="grid"/>
<circle cx="72" cy="2104.0" r="20" fill="#1f7f8d" class="numCircle"/><text x="72" y="2110.0" text-anchor="middle" class="num">17</text>
<text x="118" y="2079" class="stepTitle">Finalize tool result</text>
<text x="118" y="2103" class="body">Patch result, emit completion, create</text>
<text x="118" y="2120" class="body">toolResult message.</text>
<rect x="456" y="2067" width="155.20000000000002" height="23" rx="11.5" class="event"/><text x="533.6" y="2082.5" text-anchor="middle" class="eventText">tool_execution_end</text>
<rect x="456" y="2096" width="118.2" height="23" rx="11.5" class="event"/><text x="515.1" y="2111.5" text-anchor="middle" class="eventText">message_start</text>
<rect x="581.2" y="2096" width="103.4" height="23" rx="11.5" class="event"/><text x="632.9" y="2111.5" text-anchor="middle" class="eventText">message_end</text>
<rect x="751" y="2067" width="118.2" height="23" rx="11.5" class="hook"/><text x="810.1" y="2082.5" text-anchor="middle" class="hookText">afterToolCall</text>
<rect x="876.2" y="2067" width="177.4" height="23" rx="11.5" class="hook"/><text x="964.9" y="2082.5" text-anchor="middle" class="hookText">extension tool_result</text>
<text x="1111" y="2073" class="body">afterToolCall is low-level Agent hook; coding-agent</text>
<text x="1111" y="2090" class="body">bridges it to extension tool_result, which can replace</text>
<text x="1111" y="2107" class="body">content/details/isError/terminate.</text>
<rect x="45" y="2163" width="1510" height="118" class="rowB"/>
<line x1="100" y1="2163" x2="100" y2="2281" class="grid"/>
<line x1="440" y1="2163" x2="440" y2="2281" class="grid"/>
<line x1="735" y1="2163" x2="735" y2="2281" class="grid"/>
<line x1="1095" y1="2163" x2="1095" y2="2281" class="grid"/>
<line x1="45" y1="2163" x2="1555" y2="2163" class="grid"/>
<circle cx="72" cy="2222.0" r="20" fill="#a3472a" class="numCircle"/><text x="72" y="2228.0" text-anchor="middle" class="num">18</text>
<text x="118" y="2197" class="stepTitle">Append tool results</text>
<text x="118" y="2221" class="body">Append toolResult messages to context and</text>
<text x="118" y="2238" class="body">returned new messages.</text>
<text x="458" y="2227" class="none">—</text>
<text x="753" y="2227" class="none">—</text>
<text x="1111" y="2191" class="body">ToolResultMessage.content goes back to the model; details</text>
<text x="1111" y="2208" class="body">are for UI/state/export.</text>
<rect x="45" y="2281" width="1510" height="118" class="rowA"/>
<line x1="100" y1="2281" x2="100" y2="2399" class="grid"/>
<line x1="440" y1="2281" x2="440" y2="2399" class="grid"/>
<line x1="735" y1="2281" x2="735" y2="2399" class="grid"/>
<line x1="1095" y1="2281" x2="1095" y2="2399" class="grid"/>
<line x1="45" y1="2281" x2="1555" y2="2281" class="grid"/>
<circle cx="72" cy="2340.0" r="20" fill="#2f6f73" class="numCircle"/><text x="72" y="2346.0" text-anchor="middle" class="num">19</text>
<text x="118" y="2315" class="stepTitle">End turn</text>
<text x="118" y="2339" class="body">Emit completed assistant turn and tool</text>
<text x="118" y="2356" class="body">results.</text>
<rect x="456" y="2303" width="81.2" height="23" rx="11.5" class="event"/><text x="496.6" y="2318.5" text-anchor="middle" class="eventText">turn_end</text>
<text x="753" y="2345" class="none">—</text>
<text x="1111" y="2309" class="body">Subscribers see the assistant message plus all tool</text>
<text x="1111" y="2326" class="body">results for this turn.</text>
<rect x="45" y="2399" width="1510" height="118" class="rowB"/>
<line x1="100" y1="2399" x2="100" y2="2517" class="grid"/>
<line x1="440" y1="2399" x2="440" y2="2517" class="grid"/>
<line x1="735" y1="2399" x2="735" y2="2517" class="grid"/>
<line x1="1095" y1="2399" x2="1095" y2="2517" class="grid"/>
<line x1="45" y1="2399" x2="1555" y2="2399" class="grid"/>
<circle cx="72" cy="2458.0" r="20" fill="#426579" class="numCircle"/><text x="72" y="2464.0" text-anchor="middle" class="num">20</text>
<text x="118" y="2433" class="stepTitle">Check stop hook</text>
<text x="118" y="2457" class="body">Allow graceful stop after the completed</text>
<text x="118" y="2474" class="body">turn.</text>
<text x="458" y="2463" class="none">—</text>
<rect x="751" y="2421" width="162.6" height="23" rx="11.5" class="hook"/><text x="832.3" y="2436.5" text-anchor="middle" class="hookText">shouldStopAfterTurn</text>
<text x="1111" y="2427" class="body">AgentLoopConfig callback. Return true to emit agent_end</text>
<text x="1111" y="2444" class="body">before polling steering/follow-up queues.</text>
<rect x="45" y="2517" width="1510" height="118" class="rowA"/>
<line x1="100" y1="2517" x2="100" y2="2635" class="grid"/>
<line x1="440" y1="2517" x2="440" y2="2635" class="grid"/>
<line x1="735" y1="2517" x2="735" y2="2635" class="grid"/>
<line x1="1095" y1="2517" x2="1095" y2="2635" class="grid"/>
<line x1="45" y1="2517" x2="1555" y2="2517" class="grid"/>
<circle cx="72" cy="2576.0" r="20" fill="#c47a1d" class="numCircle"/><text x="72" y="2582.0" text-anchor="middle" class="num">21</text>
<text x="118" y="2551" class="stepTitle">Check more work</text>
<text x="118" y="2575" class="body">Continue if tools produced results;</text>
<text x="118" y="2592" class="body">otherwise poll steering/follow-ups.</text>
<text x="458" y="2581" class="none">—</text>
<rect x="751" y="2539" width="177.4" height="23" rx="11.5" class="hook"/><text x="839.7" y="2554.5" text-anchor="middle" class="hookText">getSteeringMessages()</text>
<rect x="751" y="2568" width="177.4" height="23" rx="11.5" class="hook"/><text x="839.7" y="2583.5" text-anchor="middle" class="hookText">getFollowUpMessages()</text>
<text x="1111" y="2545" class="body">Tool results normally trigger another assistant turn. If</text>
<text x="1111" y="2562" class="body">no tool work remains, steering is checked first, then</text>
<text x="1111" y="2579" class="body">follow-up messages.</text>
<rect x="45" y="2635" width="1510" height="118" class="rowB"/>
<line x1="100" y1="2635" x2="100" y2="2753" class="grid"/>
<line x1="440" y1="2635" x2="440" y2="2753" class="grid"/>
<line x1="735" y1="2635" x2="735" y2="2753" class="grid"/>
<line x1="1095" y1="2635" x2="1095" y2="2753" class="grid"/>
<line x1="45" y1="2635" x2="1555" y2="2635" class="grid"/>
<circle cx="72" cy="2694.0" r="20" fill="#7f4b8b" class="numCircle"/><text x="72" y="2700.0" text-anchor="middle" class="num">22</text>
<text x="118" y="2669" class="stepTitle">End run</text>
<text x="118" y="2693" class="body">No more work remains; finish the loop.</text>
<rect x="456" y="2657" width="88.60000000000001" height="23" rx="11.5" class="event"/><text x="500.3" y="2672.5" text-anchor="middle" class="eventText">agent_end</text>
<text x="753" y="2699" class="none">—</text>
<text x="1111" y="2663" class="body">Final loop event. Agent becomes idle only after awaited</text>
<text x="1111" y="2680" class="body">subscribers settle.</text>
<line x1="45" y1="2753" x2="1555" y2="2753" class="grid"/>
<rect x="45" y="2796" width="1510" height="44" rx="13" fill="#fff7e8" stroke="#e0c8ad"/>
<rect x="70" y="2809" width="28" height="22" rx="11" class="event"/><text x="110" y="2825" class="legend">event emitted to Agent/AgentSession subscribers</text>
<rect x="430" y="2809" width="28" height="22" rx="11" class="hook"/><text x="470" y="2825" class="legend">hook/callback/extension seam where behavior can be injected</text>
<text x="900" y="2825" class="legend">Blank cells mean pure loop mechanics, not a recommended customization seam.</text>
</svg>